<?xml version="1.0" encoding="utf-8"?>
<!-- Generator: Adobe Illustrator 27.5.0, SVG Export Plug-In . SVG Version: 6.00 Build 0)  -->
<svg version="1.1" xmlns="http://www.w3.org/2000/svg" xmlns:xlink="http://www.w3.org/1999/xlink" x="0px" y="0px"
	 viewBox="0 0 500 500" style="enable-background:new 0 0 500 500;" xml:space="preserve">
<g id="BACKGROUND">
	<rect style="fill:#5880AD;" width="500" height="500"/>
</g>
<g id="OBJECTS">
	<g>
		<g>
			<g>
				<path style="fill:#C8C9C9;" d="M450.305,231.463h-50.423V96.134c0-9.283,7.525-16.808,16.808-16.808l0,0
					c9.283,0,16.808,7.525,16.808,16.808v118.521L450.305,231.463z"/>
				<path style="fill:#DADBDB;" d="M433.497,171.361v43.294c0,9.283,7.525,16.808,16.808,16.808h0
					c9.283,0,16.807-7.525,16.807-16.808v-43.294H433.497z"/>
			</g>
			<path style="fill:#413147;" d="M194.14,123.44h209.337c4.74,0,8.582,3.842,8.582,8.582v248.06c0,4.74-3.842,8.582-8.582,8.582
				H194.14c-4.74,0-8.582-3.842-8.582-8.582v-248.06C185.558,127.282,189.4,123.44,194.14,123.44z"/>
			<path style="fill:#FEFFFF;" d="M222.305,79.322c-13.643,0-24.704,11.061-24.704,24.704v21.801h202.286V96.135
				c0-0.682,0.04-1.364,0.12-2.033c1.003-8.319,8.078-14.78,16.679-14.78H222.305z M215.122,121.267c-2.595,0-4.708-2.1-4.708-4.708
				c0-2.595,2.113-4.708,4.708-4.708c2.595,0,4.708,2.113,4.708,4.708C219.83,119.167,217.717,121.267,215.122,121.267z
				 M233.714,121.267c-2.595,0-4.708-2.1-4.708-4.708c0-2.595,2.113-4.708,4.708-4.708c2.608,0,4.708,2.113,4.708,4.708
				C238.422,119.167,236.322,121.267,233.714,121.267z M252.319,121.267c-2.608,0-4.708-2.1-4.708-4.708
				c0-2.595,2.1-4.708,4.708-4.708c2.595,0,4.708,2.113,4.708,4.708C257.027,119.167,254.913,121.267,252.319,121.267z
				 M270.91,121.267c-2.608,0-4.708-2.1-4.708-4.708c0-2.595,2.1-4.708,4.708-4.708c2.595,0,4.708,2.113,4.708,4.708
				C275.618,119.167,273.505,121.267,270.91,121.267z M289.502,121.267c-2.595,0-4.708-2.1-4.708-4.708
				c0-2.595,2.113-4.708,4.708-4.708c2.608,0,4.708,2.113,4.708,4.708C294.21,119.167,292.11,121.267,289.502,121.267z
				 M308.093,121.267c-2.595,0-4.708-2.1-4.708-4.708c0-2.595,2.113-4.708,4.708-4.708c2.608,0,4.721,2.113,4.721,4.708
				C312.815,119.167,310.702,121.267,308.093,121.267z M326.698,121.267c-2.608,0-4.708-2.1-4.708-4.708
				c0-2.595,2.1-4.708,4.708-4.708c2.595,0,4.708,2.113,4.708,4.708C331.406,119.167,329.293,121.267,326.698,121.267z
				 M345.29,121.267c-2.595,0-4.708-2.1-4.708-4.708c0-2.595,2.113-4.708,4.708-4.708c2.595,0,4.708,2.113,4.708,4.708
				C349.998,119.167,347.885,121.267,345.29,121.267z M363.881,121.267c-2.595,0-4.708-2.1-4.708-4.708
				c0-2.595,2.113-4.708,4.708-4.708c2.608,0,4.708,2.113,4.708,4.708C368.589,119.167,366.49,121.267,363.881,121.267z
				 M382.486,121.267c-2.608,0-4.721-2.1-4.721-4.708c0-2.595,2.113-4.708,4.721-4.708c2.595,0,4.708,2.113,4.708,4.708
				C387.194,119.167,385.081,121.267,382.486,121.267z"/>
			<path style="fill:#C8C9C9;" d="M400.012,128.5H197.605l7.129,243.814h195.278V128.5z M215.126,142.475
				c-2.595,0-4.708-2.113-4.708-4.708c0-2.608,2.113-4.708,4.708-4.708c2.608,0,4.721,2.1,4.721,4.708
				C219.848,140.361,217.735,142.475,215.126,142.475z M233.731,142.475c-2.608,0-4.708-2.113-4.708-4.708
				c0-2.608,2.1-4.708,4.708-4.708c2.595,0,4.708,2.1,4.708,4.708C238.439,140.361,236.326,142.475,233.731,142.475z
				 M252.323,142.475c-2.595,0-4.708-2.113-4.708-4.708c0-2.608,2.113-4.708,4.708-4.708c2.595,0,4.708,2.1,4.708,4.708
				C257.031,140.361,254.917,142.475,252.323,142.475z M270.914,142.475c-2.595,0-4.708-2.113-4.708-4.708
				c0-2.608,2.113-4.708,4.708-4.708c2.608,0,4.708,2.1,4.708,4.708C275.622,140.361,273.522,142.475,270.914,142.475z
				 M289.519,142.475c-2.608,0-4.721-2.113-4.721-4.708c0-2.608,2.113-4.708,4.721-4.708c2.595,0,4.708,2.1,4.708,4.708
				C294.227,140.361,292.114,142.475,289.519,142.475z M308.111,142.475c-2.608,0-4.708-2.113-4.708-4.708
				c0-2.608,2.1-4.708,4.708-4.708c2.595,0,4.708,2.1,4.708,4.708C312.819,140.361,310.706,142.475,308.111,142.475z
				 M326.702,142.475c-2.595,0-4.708-2.113-4.708-4.708c0-2.608,2.113-4.708,4.708-4.708c2.608,0,4.708,2.1,4.708,4.708
				C331.41,140.361,329.31,142.475,326.702,142.475z M345.294,142.475c-2.595,0-4.708-2.113-4.708-4.708
				c0-2.608,2.113-4.708,4.708-4.708c2.608,0,4.708,2.1,4.708,4.708C350.002,140.361,347.902,142.475,345.294,142.475z
				 M363.899,142.475c-2.608,0-4.708-2.113-4.708-4.708c0-2.608,2.1-4.708,4.708-4.708c2.595,0,4.708,2.1,4.708,4.708
				C368.607,140.361,366.493,142.475,363.899,142.475z M382.49,133.059c2.595,0,4.708,2.1,4.708,4.708
				c0,2.595-2.113,4.708-4.708,4.708c-2.595,0-4.708-2.113-4.708-4.708C377.782,135.159,379.895,133.059,382.49,133.059z"/>
			<path style="fill:#FEFFFF;" d="M197.605,128.5v135.395c0,30.509-4.387,60.857-13.041,90.122l-10.139,34.348h166.588
				c10.62,0,20.611-3.491,28.69-9.537c2.581-1.926,4.962-4.106,7.102-6.514c4.601-5.163,8.132-11.355,10.179-18.297
				c8.64-29.265,13.027-59.613,13.027-90.122V128.5H197.605z M363.899,133.059c2.595,0,4.708,2.1,4.708,4.708
				c0,2.595-2.113,4.708-4.708,4.708c-2.608,0-4.708-2.113-4.708-4.708C359.191,135.159,361.29,133.059,363.899,133.059z
				 M345.294,133.059c2.608,0,4.708,2.1,4.708,4.708c0,2.595-2.1,4.708-4.708,4.708c-2.595,0-4.708-2.113-4.708-4.708
				C340.586,135.159,342.699,133.059,345.294,133.059z M326.702,133.059c2.608,0,4.708,2.1,4.708,4.708
				c0,2.595-2.1,4.708-4.708,4.708c-2.595,0-4.708-2.113-4.708-4.708C321.994,135.159,324.108,133.059,326.702,133.059z
				 M308.111,133.059c2.595,0,4.708,2.1,4.708,4.708c0,2.595-2.113,4.708-4.708,4.708c-2.608,0-4.708-2.113-4.708-4.708
				C303.403,135.159,305.503,133.059,308.111,133.059z M289.519,133.059c2.595,0,4.708,2.1,4.708,4.708
				c0,2.595-2.113,4.708-4.708,4.708c-2.608,0-4.721-2.113-4.721-4.708C284.798,135.159,286.911,133.059,289.519,133.059z
				 M270.914,133.059c2.608,0,4.708,2.1,4.708,4.708c0,2.595-2.1,4.708-4.708,4.708c-2.595,0-4.708-2.113-4.708-4.708
				C266.206,135.159,268.319,133.059,270.914,133.059z M252.323,133.059c2.595,0,4.708,2.1,4.708,4.708
				c0,2.595-2.113,4.708-4.708,4.708c-2.595,0-4.708-2.113-4.708-4.708C247.615,135.159,249.728,133.059,252.323,133.059z
				 M233.731,133.059c2.595,0,4.708,2.1,4.708,4.708c0,2.595-2.113,4.708-4.708,4.708c-2.608,0-4.708-2.113-4.708-4.708
				C229.023,135.159,231.123,133.059,233.731,133.059z M215.126,133.059c2.608,0,4.721,2.1,4.721,4.708
				c0,2.595-2.113,4.708-4.721,4.708c-2.595,0-4.708-2.113-4.708-4.708C210.418,135.159,212.531,133.059,215.126,133.059z
				 M382.49,142.475c-2.595,0-4.708-2.113-4.708-4.708c0-2.608,2.113-4.708,4.708-4.708c2.595,0,4.708,2.1,4.708,4.708
				C387.198,140.361,385.085,142.475,382.49,142.475z"/>
			<path style="fill:#346690;" d="M366.926,345.146h-17.075c-1.212,0-2.195-0.983-2.195-2.195l0,0c0-1.212,0.983-2.195,2.195-2.195
				h17.075c1.212,0,2.195,0.983,2.195,2.195l0,0C369.121,344.163,368.138,345.146,366.926,345.146z"/>
			<path style="fill:#95B4E0;" d="M366.926,352.494h-10.752c-1.212,0-2.195-0.982-2.195-2.194v0c0-1.212,0.983-2.195,2.195-2.195
				h10.752c1.212,0,2.195,0.983,2.195,2.195v0C369.121,351.512,368.138,352.494,366.926,352.494z"/>
			<path style="fill:#95B4E0;" d="M366.926,337.819h-10.752c-1.212,0-2.195-0.983-2.195-2.195l0,0c0-1.212,0.983-2.195,2.195-2.195
				h10.752c1.212,0,2.195,0.983,2.195,2.195l0,0C369.121,336.836,368.138,337.819,366.926,337.819z"/>
			<path style="fill:#DADBDB;" d="M313.301,360.647v-13.079H138.754v13.079c0,15.307,12.409,27.716,27.716,27.716h174.546l0,0
				C325.709,388.363,313.301,375.954,313.301,360.647z"/>
			<path style="fill:#251F2B;" d="M215.116,136.985L215.116,136.985c-1.062,0-1.923-0.861-1.923-1.923v-15.8
				c0-1.062,0.861-1.923,1.923-1.923l0,0c1.062,0,1.923,0.861,1.923,1.923v15.8C217.039,136.124,216.178,136.985,215.116,136.985z"
				/>
			<path style="fill:#251F2B;" d="M233.715,136.985L233.715,136.985c-1.062,0-1.923-0.861-1.923-1.923v-15.8
				c0-1.062,0.861-1.923,1.923-1.923l0,0c1.062,0,1.923,0.861,1.923,1.923v15.8C235.637,136.124,234.777,136.985,233.715,136.985z"
				/>
			<path style="fill:#251F2B;" d="M252.313,136.985L252.313,136.985c-1.062,0-1.923-0.861-1.923-1.923v-15.8
				c0-1.062,0.861-1.923,1.923-1.923l0,0c1.062,0,1.923,0.861,1.923,1.923v15.8C254.236,136.124,253.375,136.985,252.313,136.985z"
				/>
			<path style="fill:#251F2B;" d="M270.911,136.985L270.911,136.985c-1.062,0-1.923-0.861-1.923-1.923v-15.8
				c0-1.062,0.861-1.923,1.923-1.923l0,0c1.062,0,1.923,0.861,1.923,1.923v15.8C272.834,136.124,271.973,136.985,270.911,136.985z"
				/>
			<path style="fill:#251F2B;" d="M289.509,136.985L289.509,136.985c-1.062,0-1.923-0.861-1.923-1.923v-15.8
				c0-1.062,0.861-1.923,1.923-1.923l0,0c1.062,0,1.923,0.861,1.923,1.923v15.8C291.432,136.124,290.571,136.985,289.509,136.985z"
				/>
			<path style="fill:#251F2B;" d="M308.107,136.985L308.107,136.985c-1.062,0-1.923-0.861-1.923-1.923v-15.8
				c0-1.062,0.861-1.923,1.923-1.923l0,0c1.062,0,1.923,0.861,1.923,1.923v15.8C310.03,136.124,309.169,136.985,308.107,136.985z"/>
			<path style="fill:#251F2B;" d="M326.706,136.985L326.706,136.985c-1.062,0-1.923-0.861-1.923-1.923v-15.8
				c0-1.062,0.861-1.923,1.923-1.923l0,0c1.062,0,1.923,0.861,1.923,1.923v15.8C328.628,136.124,327.767,136.985,326.706,136.985z"
				/>
			<path style="fill:#251F2B;" d="M345.304,136.985L345.304,136.985c-1.062,0-1.923-0.861-1.923-1.923v-15.8
				c0-1.062,0.861-1.923,1.923-1.923l0,0c1.062,0,1.923,0.861,1.923,1.923v15.8C347.226,136.124,346.366,136.985,345.304,136.985z"
				/>
			<path style="fill:#251F2B;" d="M363.902,136.985L363.902,136.985c-1.062,0-1.923-0.861-1.923-1.923v-15.8
				c0-1.062,0.861-1.923,1.923-1.923l0,0c1.062,0,1.923,0.861,1.923,1.923v15.8C365.825,136.124,364.964,136.985,363.902,136.985z"
				/>
			<path style="fill:#251F2B;" d="M382.5,136.985L382.5,136.985c-1.062,0-1.923-0.861-1.923-1.923v-15.8
				c0-1.062,0.861-1.923,1.923-1.923l0,0c1.062,0,1.923,0.861,1.923,1.923v15.8C384.423,136.124,383.562,136.985,382.5,136.985z"/>
		</g>
		<g>
			<g>
				
					<text transform="matrix(1 0 0 1 220.6483 171.5166)" style="fill:#473A52; font-family:'Montserrat-Black'; font-size:15.7836px;">&lt;</text>
				
					<text transform="matrix(-1 0 0 1 376.9681 171.5166)" style="fill:#473A52; font-family:'Montserrat-Black'; font-size:15.7836px;">&lt;</text>
			</g>
		</g>
		<path style="fill:#95B4E0;" d="M339.542,171.516h-81.467c-2.808,0-5.085-2.276-5.085-5.085l0,0c0-2.808,2.276-5.084,5.085-5.084
			h81.467c2.808,0,5.085,2.276,5.085,5.084l0,0C344.626,169.24,342.35,171.516,339.542,171.516z"/>
		<path style="fill:#FFCA4E;" d="M252.325,197.144h-25.594c-1.702,0-3.082-1.38-3.082-3.082l0,0c0-1.702,1.38-3.082,3.082-3.082
			h25.594c1.702,0,3.082,1.38,3.082,3.082l0,0C255.407,195.764,254.027,197.144,252.325,197.144z"/>
		<path style="fill:#FFCA4E;" d="M291.85,197.144h-25.594c-1.702,0-3.082-1.38-3.082-3.082l0,0c0-1.702,1.38-3.082,3.082-3.082
			h25.594c1.702,0,3.082,1.38,3.082,3.082l0,0C294.932,195.764,293.553,197.144,291.85,197.144z"/>
		<path style="fill:#FFCA4E;" d="M331.376,197.144h-25.594c-1.702,0-3.082-1.38-3.082-3.082l0,0c0-1.702,1.38-3.082,3.082-3.082
			h25.594c1.702,0,3.082,1.38,3.082,3.082l0,0C334.458,195.764,333.078,197.144,331.376,197.144z"/>
		<path style="fill:#FFCA4E;" d="M370.901,197.144h-25.594c-1.702,0-3.082-1.38-3.082-3.082l0,0c0-1.702,1.38-3.082,3.082-3.082
			h25.594c1.702,0,3.082,1.38,3.082,3.082l0,0C373.983,195.764,372.603,197.144,370.901,197.144z"/>
		<path style="fill:#BCD8FB;" d="M250.762,236.371H228.01c-2.408,0-4.361-1.952-4.361-4.361v-22.752
			c0-2.408,1.952-4.361,4.361-4.361h22.752c2.408,0,4.361,1.952,4.361,4.361v22.752C255.122,234.419,253.17,236.371,250.762,236.371
			z"/>
		<path style="fill:#D43F53;" d="M290.429,236.371h-22.752c-2.408,0-4.361-1.952-4.361-4.361v-22.752
			c0-2.408,1.952-4.361,4.361-4.361h22.752c2.408,0,4.361,1.952,4.361,4.361v22.752C294.79,234.419,292.838,236.371,290.429,236.371
			z"/>
		<path style="fill:#BCD8FB;" d="M330.097,236.371h-22.752c-2.408,0-4.361-1.952-4.361-4.361v-22.752
			c0-2.408,1.952-4.361,4.361-4.361h22.752c2.408,0,4.361,1.952,4.361,4.361v22.752
			C334.458,234.419,332.505,236.371,330.097,236.371z"/>
		<path style="fill:#BCD8FB;" d="M369.765,236.371h-22.752c-2.408,0-4.361-1.952-4.361-4.361v-22.752
			c0-2.408,1.952-4.361,4.361-4.361h22.752c2.408,0,4.361,1.952,4.361,4.361v22.752
			C374.125,234.419,372.173,236.371,369.765,236.371z"/>
		<path style="fill:#BCD8FB;" d="M250.762,276.845H228.01c-2.408,0-4.361-1.952-4.361-4.361v-22.752
			c0-2.408,1.952-4.361,4.361-4.361h22.752c2.408,0,4.361,1.952,4.361,4.361v22.752C255.122,274.893,253.17,276.845,250.762,276.845
			z"/>
		<path style="fill:#BCD8FB;" d="M290.429,276.845h-22.752c-2.408,0-4.361-1.952-4.361-4.361v-22.752
			c0-2.408,1.952-4.361,4.361-4.361h22.752c2.408,0,4.361,1.952,4.361,4.361v22.752C294.79,274.893,292.838,276.845,290.429,276.845
			z"/>
		<path style="fill:#D43F53;" d="M330.097,276.845h-22.752c-2.408,0-4.361-1.952-4.361-4.361v-22.752
			c0-2.408,1.952-4.361,4.361-4.361h22.752c2.408,0,4.361,1.952,4.361,4.361v22.752
			C334.458,274.893,332.505,276.845,330.097,276.845z"/>
		<path style="fill:#FEFFFF;" d="M326.802,262.136c3.583-3.186,1.561-9.221-3.229-9.437c-0.101-0.005-0.203-0.007-0.305-0.007
			c-1.874,0-3.567,0.775-4.777,2.021c-1.211-1.246-2.903-2.021-4.778-2.021c-0.102,0-0.204,0.002-0.305,0.007
			c-4.79,0.216-6.811,6.252-3.227,9.437l8.311,7.386L326.802,262.136z"/>
		<polyline style="fill:none;stroke:#2C1817;stroke-width:0.8957;stroke-miterlimit:10;" points="306.032,261.783 315.021,261.783 
			317.183,257.067 319.457,265.15 321.604,261.783 331.41,261.783 		"/>
		<path style="fill:#D43F53;" d="M369.765,276.845h-22.752c-2.408,0-4.361-1.952-4.361-4.361v-22.752
			c0-2.408,1.952-4.361,4.361-4.361h22.752c2.408,0,4.361,1.952,4.361,4.361v22.752
			C374.125,274.893,372.173,276.845,369.765,276.845z"/>
		<path style="fill:#BCD8FB;" d="M250.762,317.319H228.01c-2.408,0-4.361-1.952-4.361-4.361v-22.752
			c0-2.408,1.952-4.361,4.361-4.361h22.752c2.408,0,4.361,1.952,4.361,4.361v22.752C255.122,315.367,253.17,317.319,250.762,317.319
			z"/>
		<path style="fill:#BCD8FB;" d="M290.429,317.319h-22.752c-2.408,0-4.361-1.952-4.361-4.361v-22.752
			c0-2.408,1.952-4.361,4.361-4.361h22.752c2.408,0,4.361,1.952,4.361,4.361v22.752C294.79,315.367,292.838,317.319,290.429,317.319
			z"/>
		<path style="fill:#DEECFF;" d="M330.097,317.319h-22.752c-2.408,0-4.361-1.952-4.361-4.361v-22.752
			c0-2.408,1.952-4.361,4.361-4.361h22.752c2.408,0,4.361,1.952,4.361,4.361v22.752
			C334.458,315.367,332.505,317.319,330.097,317.319z"/>
		<path style="fill:#DEECFF;" d="M369.48,317.319h-22.752c-2.408,0-4.361-1.952-4.361-4.361v-22.752
			c0-2.408,1.952-4.361,4.361-4.361h22.752c2.408,0,4.361,1.952,4.361,4.361v22.752C373.84,315.367,371.888,317.319,369.48,317.319z
			"/>
		<path style="fill:#346690;" d="M434.287,230.79h-78.33c-2.215,0-4.01-1.795-4.01-4.01v-29.755c0-2.215,1.795-4.01,4.01-4.01h78.33
			c2.215,0,4.01,1.795,4.01,4.01v29.755C438.297,228.994,436.502,230.79,434.287,230.79z"/>
		
			<ellipse transform="matrix(0.1606 -0.987 0.987 0.1606 177.3884 594.6179)" style="fill:#FFCA4E;" cx="438.297" cy="193.014" rx="8.819" ry="8.819"/>
		<g>
			<g>
				<path style="fill:#FEFFFF;" d="M441.852,194.336h-7.109v-3.01c0-1.963,1.591-3.555,3.555-3.555l0,0
					c1.963,0,3.555,1.591,3.555,3.555V194.336z"/>
				<path style="fill:#FEFFFF;" d="M443.787,195.874h-10.979l0,0c0-1.699,1.378-3.077,3.077-3.077h4.826
					C442.41,192.797,443.787,194.175,443.787,195.874L443.787,195.874z"/>
			</g>
			<path style="fill:#FEFFFF;" d="M436.763,196.723c0,0.848,0.687,1.535,1.535,1.535c0.848,0,1.535-0.687,1.535-1.535H436.763z"/>
		</g>
		<polygon style="fill:#346690;" points="360.397,226.997 360.397,248.255 382.5,226.997 		"/>
		
			<ellipse transform="matrix(0.1962 -0.9806 0.9806 0.1962 90.7715 534.5424)" style="fill:#FEFFFF;" cx="371.449" cy="211.902" rx="11.837" ry="11.837"/>
		<rect x="368.562" y="204.367" style="fill:#D43F53;" width="5.774" height="15.07"/>
		
			<rect x="368.562" y="204.367" transform="matrix(-1.836970e-16 1 -1 -1.836970e-16 583.3506 -159.5467)" style="fill:#D43F53;" width="5.774" height="15.07"/>
		<path style="fill:#95B4E0;" d="M425.182,208.281h-29.286c-0.934,0-1.692-0.758-1.692-1.692v0c0-0.934,0.758-1.692,1.692-1.692
			h29.286c0.935,0,1.692,0.758,1.692,1.692v0C426.874,207.524,426.116,208.281,425.182,208.281z"/>
		<path style="fill:#FFFFFF;" d="M420.437,218.907h-22.717c-1.941,0-3.515-1.574-3.515-3.515l0,0c0-1.941,1.574-3.515,3.515-3.515
			h22.717c1.941,0,3.515,1.574,3.515,3.515l0,0C423.952,217.333,422.378,218.907,420.437,218.907z"/>
	</g>
	<g>
		<path style="fill:#441B15;" d="M105.571,191.649c4.374-5.928,7.799-5.937,16.956-5.541c4.066,0.176,5.992-5.483,11.361-7.065
			c6.921-2.04,13.014,0.146,16.223,7.875c1.928-1.056,5.254-1.062,6.525,1.019c0.383,0.626,0.551,1.417,0.69,2.192
			c2.445,13.635-3.769,27.62-11.62,36.905c-10.684,12.635-24.9,15.231-34.33,7.76C106.805,231.172,100.701,198.248,105.571,191.649z
			"/>
		<polygon style="fill:#FFCA4C;" points="111.762,252.238 111.762,433.686 137.345,433.686 137.345,254.239 		"/>
		<path style="fill:#FFDD8C;" d="M111.762,252.238v8.87c0,0,15.604,10.11,25.412,0l0.171-6.87L111.762,252.238z"/>
		<polygon style="fill:#FFDD8C;" points="111.762,433.686 111.601,426.052 137.552,426.052 137.345,433.686 		"/>
		<path style="fill:#FEFFFF;" d="M137.345,254.239v179.447h28.408c0,0-0.452-167.441,0-172.577
			C166.206,255.972,137.345,254.239,137.345,254.239z"/>
		<path style="fill:#DADBDB;" d="M137.345,241.48v76.815c0,0,11.409-9.957,11.654-20.313c0.245-10.356-1.067-44.397-0.863-47.575
			C148.34,247.23,137.345,241.48,137.345,241.48z"/>
		<path style="fill:#FEFFFF;" d="M162.994,258.432c10.89,1.39,26.455,33.398,26.455,33.398l-26.455,31.247
			C162.994,323.077,152.558,257.1,162.994,258.432z"/>
		
			<line style="fill:none;stroke:#0D0000;stroke-width:0.5;stroke-miterlimit:10;" x1="163.881" y1="274.512" x2="165.555" y2="318.157"/>
		<path style="fill:#DADBDB;" d="M162.994,323.077l29.139-34.173c0,0,1.276-2.877-0.985-3.547c0,0-1.699-4.638-4.748-3.799
			c-1.285,0.354-26.172,23.155-26.172,23.155L162.994,323.077z"/>
		<path style="fill:#F88D7D;" d="M241.818,234.739l-52.369,57.091l-20.458,25.15c0,0,15.883,11.583,25.372,9.456
			c5.638-1.263,56.634-86.241,56.634-86.241L241.818,234.739z"/>
		<path style="fill:#FEFFFF;" d="M111.762,252.238c0,0-34.187,13.347-39.613,17.584c-5.426,4.238-8.592,163.863-8.592,163.863
			h48.205V252.238z"/>
		<path style="fill:#CC7467;" d="M250.675,223.072c0,0,12.773-9.477,14.422-8.378c1.648,1.099-6.595,10.576-9.068,12.911
			L250.675,223.072z"/>
		<g>
			<g>
				<polygon style="fill:#FFCA4E;" points="236.354,223.589 236.05,218.398 273.409,216.126 273.713,221.317 				"/>
				<path style="fill:#FFFFFF;" d="M273.714,221.317l-0.304-5.191l2.034,0.809l1.604,0.638c0.82,0.326,0.887,1.462,0.11,1.882
					l-1.509,0.816L273.714,221.317z"/>
				<polygon style="opacity:0.3;fill:#FFFFFF;" points="236.275,222.244 236.131,219.79 273.491,217.518 273.635,219.972 				"/>
				
					<rect x="233.215" y="220.629" transform="matrix(0.0585 0.9983 -0.9983 0.0585 442.6667 -27.3173)" style="fill:#FFFFFF;" width="5.2" height="0.774"/>
				<path style="fill:#473A52;" d="M233.183,221.502l-0.039-0.661c-0.073-1.251,0.882-2.324,2.132-2.398l0,0l0.304,5.191l0,0
					C234.33,223.708,233.256,222.753,233.183,221.502z"/>
				<path style="fill:#473A52;" d="M275.649,220.27c-0.218-0.489-0.359-1.056-0.395-1.664c-0.035-0.598,0.036-1.167,0.19-1.671
					l1.604,0.638c0.82,0.326,0.887,1.462,0.11,1.882L275.649,220.27z"/>
			</g>
		</g>
		<path style="fill:#F88D7D;" d="M265.199,213.525c0,0-10.911-1.684-11.604-1.448c-0.693,0.236-2.771,6.127-2.771,6.127
			s-5.023,2.146-5.889,2.89c-0.866,0.744-3.117,13.645-3.117,13.645l9.179,5.458c0,0,6.754-6.544,7.794-7.515
			c1.039-0.971,5.196-12.95,3.984-13.282c-1.212-0.332-6.408,6.082-6.408,6.082l1.559-7.277
			C257.924,218.204,267.45,217.759,265.199,213.525z"/>
		<path style="fill:#FEFFFF;" d="M72.149,269.823c-22.158,7.022-8.592,91.597-8.592,91.597l24.102-15.264
			C87.659,346.155,85.2,265.686,72.149,269.823z"/>
		<path style="fill:#DADBDB;" d="M87.345,338.722l0.315,7.434L63.557,361.42c0,0-7.687,3.08-6.331-4.039
			c0,0-3.713-4.962-3.034-8.137s33.1-11.56,33.127-11.041"/>
		<path style="fill:none;stroke:#0D0000;stroke-width:0.5;stroke-miterlimit:10;" d="M87.659,346.155c0,0-0.49-41.174-4.722-53.13"
			/>
		<path style="fill:#FEFFFF;" d="M229.529,234.739"/>
		<path style="fill:#DADBDB;" d="M111.762,239.963c0,0-4.254,2.756-8.257,6.971c-4.003,4.215-3.905,41.766-4.003,49.158
			c-0.129,9.815,12.259,22.203,12.259,22.203V239.963z"/>
		
			<line style="fill:none;stroke:#41313B;stroke-width:0.4593;stroke-miterlimit:10;" x1="241.818" y1="234.739" x2="240.437" y2="239.241"/>
		<g>
			<path style="fill:none;stroke:#3B2D47;stroke-width:0.8957;stroke-miterlimit:10;" d="M119.783,236.99
				c0,0-10.442,3.612-10.83,11.198c-0.388,7.586,1.019,26.44,1.019,26.44"/>
			<path style="fill:none;stroke:#3B2D47;stroke-width:0.8957;stroke-miterlimit:10;" d="M105.939,290.659
				c0,0-4.487-14.929,3.725-16.102c8.62-1.232,8.82,14.702,8.82,14.702"/>
			<path style="fill:#3B2D47;" d="M107.779,290.143c0.055,0.501-0.439,0.967-1.104,1.04c-0.665,0.073-1.248-0.274-1.303-0.775
				c-0.055-0.501,0.439-0.967,1.104-1.04C107.141,289.294,107.724,289.641,107.779,290.143z"/>
			<path style="fill:#3B2D47;" d="M118.913,289.17c0.055,0.501-0.439,0.967-1.104,1.04c-0.665,0.073-1.248-0.274-1.303-0.775
				c-0.055-0.501,0.439-0.967,1.104-1.04C118.275,288.321,118.858,288.668,118.913,289.17z"/>
		</g>
		<g>
			<path style="fill:none;stroke:#2C1817;stroke-width:0.8957;stroke-miterlimit:10;" d="M130.152,237.531
				c0,0,7.349,3.174,9.753,11.522c1.71,5.937,0.157,37.465,0.268,36.954"/>
			<path style="fill:#BDBDBD;" d="M144.315,286.8c-0.438,2.287-2.648,3.786-4.935,3.348c-2.287-0.438-3.786-2.648-3.348-4.935
				c0.438-2.287,2.648-3.786,4.935-3.348C143.254,282.303,144.753,284.513,144.315,286.8z"/>
			<path style="fill:#E0E0E0;" d="M142.748,286.5c-0.272,1.422-1.646,2.353-3.067,2.081c-1.422-0.272-2.353-1.646-2.081-3.068
				c0.272-1.422,1.646-2.353,3.067-2.081C142.088,283.704,143.02,285.078,142.748,286.5z"/>
		</g>
		<path style="fill:#F88D7D;" d="M111.762,217.576v34.662c0,0,11.425,11.122,25.46,2.001l0.759-34.129L111.762,217.576z"/>
		<path style="fill:#070019;" d="M114.432,218.26l-0.668,8.503c0,0,0.286,17.396,5.485,22.653
			c6.783,6.858,18.097,4.823,18.097,4.823l0.636-34.129L114.432,218.26z"/>
		<path style="fill:#F88D7D;" d="M147.553,215.041c0,0,7.597-5.173,9.348,1.039c1.489,5.286-5.665,7.931-9.348,4.532V215.041z"/>
		<path style="fill:#F88D7D;" d="M112.695,207.733c0-13.954,18.044-12.992,18.044-12.992s18.044-0.962,18.044,12.992
			c0,4.337,0.241,13.473,0,15.879c-0.241,2.406-4.812,19.488-18.044,19.488s-17.803-17.082-18.044-19.488
			C112.455,221.206,112.695,212.07,112.695,207.733z"/>
		<g>
			<g>
				<g>
					<g>
						<g>
							<path style="fill:#0D0000;" d="M131.985,217.188c0.003,1.178-0.515,2.134-1.158,2.136c-0.642,0.002-1.165-0.952-1.168-2.13
								c-0.003-1.178,0.515-2.134,1.157-2.136C131.459,215.056,131.982,216.01,131.985,217.188z"/>
						</g>
					</g>
				</g>
			</g>
		</g>
		<path style="fill:#441B15;" d="M124.872,210.247c0,0,1.509-2.327,4.969-2.076c3.459,0.252,3.962,1.635,3.648,2.076
			c-0.517,0.724-2.173,0.555-3.522,0C127.954,209.418,124.81,211.064,124.872,210.247z"/>
		<g>
			<g>
				<g>
					<g>
						<g>
							<path style="fill:#0D0000;" d="M141.167,217.188c-0.003,1.178,0.515,2.134,1.158,2.136c0.642,0.002,1.165-0.952,1.168-2.13
								c0.003-1.178-0.515-2.134-1.157-2.136C141.693,215.056,141.17,216.01,141.167,217.188z"/>
						</g>
					</g>
				</g>
			</g>
		</g>
		<path style="fill:#441B15;" d="M148.135,210.247c0,0-1.509-2.327-4.969-2.076c-3.459,0.252-3.962,1.635-3.648,2.076
			c0.517,0.724,2.173,0.555,3.522,0C145.053,209.418,148.198,211.064,148.135,210.247z"/>
		
			<line style="fill:none;stroke:#41313B;stroke-width:0.4593;stroke-miterlimit:10;" x1="153.437" y1="215.263" x2="148.999" y2="219.89"/>
		
			<line style="fill:none;stroke:#41313B;stroke-width:0.4593;stroke-miterlimit:10;" x1="153.437" y1="219.323" x2="150.959" y2="217.847"/>
		<path style="fill:#F88D7D;" d="M113.926,215.041c0,0-7.597-5.173-9.347,1.039c-1.489,5.286,5.665,7.931,9.347,4.532V215.041z"/>
		
			<line style="fill:none;stroke:#41313B;stroke-width:0.4593;stroke-miterlimit:10;" x1="108.042" y1="215.263" x2="112.48" y2="219.89"/>
		
			<line style="fill:none;stroke:#41313B;stroke-width:0.4593;stroke-miterlimit:10;" x1="108.042" y1="219.323" x2="110.52" y2="217.847"/>
		<path style="fill:none;stroke:#41313B;stroke-width:0.4593;stroke-miterlimit:10;" d="M135.844,220.032
			c0,0,1.727,6.666,1.246,8.68c-0.481,2.015-4.148,0.853-4.148,0.853"/>
		<path style="fill:#FDFCFF;" d="M139.97,232.034h-9.825c0,0,1.477,7.936,4.913,7.928
			C138.373,239.955,139.97,232.034,139.97,232.034z"/>
		<path style="fill:#E8E8E8;" d="M138.181,288.313c0,0-26.023,46.477-44.411,46.944c0,0,10.257,15.863,42.714,16.817
			c0,0,27.932-20.087,35.482-59.1L138.181,288.313z"/>
		<polygon style="fill:#264C6B;" points="138.181,288.313 103.505,354.897 147.703,359.175 184.276,294.673 		"/>
		<polygon style="fill:#346690;" points="142.469,288.905 107.793,355.489 151.99,359.766 188.564,295.264 		"/>
		<path style="fill:#F88D7D;" d="M137.981,331.414c0,0,2.753-6.606,2.996-7.18c0.242-0.574,5.541-5.109,5.878-4.893
			c1.459,0.935-0.754,4.365-0.754,4.365s4.669-5.363,6.255-4.365c0.829,0.522-2.487,5.42-2.487,5.42s4.974-6.012,6.417-5.125
			c2.192,1.347-3.781,7.922-3.781,7.922s3.964-2.459,4.282-2.022c1.206,1.658-0.983,10.651-10.479,12.987L137.981,331.414z"/>
		<path style="fill:#F88D7D;" d="M137.981,331.414l-50.322,14.742L63.557,361.42c0,0,1.539,13.331,11.079,15.214
			c5.668,1.119,71.673-38.111,71.673-38.111L137.981,331.414z"/>
		
			<line style="fill:none;stroke:#0D0000;stroke-width:0.5;stroke-miterlimit:10;" x1="137.981" y1="331.414" x2="135.058" y2="333.985"/>
		<path style="fill:#441B15;" d="M153.067,202.943c-1.818,3.456-6.15,5.372-9.93,4.392c-2.255-0.585-4.171-2.034-6.258-3.07
			c-2.087-1.036-4.665-1.636-6.691-0.484c-1.095,0.623-1.898,1.692-3.033,2.237c-1.738,0.834-4.243-0.63-7.682-3.064
			c1.131,3.505,1.386,6.658,0.308,9.102c-1.078,2.444-4.568,2.702-7.194,2.213c-4.306-0.801-5.044-5.208-5.25-7.737
			c-1.264-15.528,19.722-19.696,29.963-18.979c4.124,0.288,8.28,1.449,11.575,3.946
			C152.172,193.994,154.992,199.284,153.067,202.943z"/>
		
			<line style="fill:none;stroke:#0D0000;stroke-width:0.5;stroke-miterlimit:10;" x1="189.449" y1="291.831" x2="187.379" y2="301.582"/>
	</g>
	<rect y="433.686" style="opacity:0.5;fill:#FFFFFF;" width="500" height="66.314"/>
	<g>
		
			<ellipse transform="matrix(0.7071 -0.7071 0.7071 0.7071 -100.973 94.4768)" style="fill:#FFFFFF;" cx="63.557" cy="169.124" rx="21.432" ry="21.432"/>
		<polygon style="fill:#FFFFFF;" points="77.458,178.321 87.659,192.502 70.884,185.412 		"/>
	</g>
	<polygon style="fill:#3AE4BF;" points="52.041,158.276 64.734,166.017 95.064,144.822 62.1,181.122 	"/>
	<g>
		<path style="fill:#C9E2FF;" d="M308.346,427.159l33.333-65.74h-94.28l-36.642,72.266h86.963
			C302.209,433.686,306.316,431.163,308.346,427.159z"/>
		
			<ellipse transform="matrix(0.7071 -0.7071 0.7071 0.7071 -199.592 317.9066)" style="fill:#DBECFF;" cx="283.951" cy="399.882" rx="8.573" ry="8.573"/>
		<path style="fill:#ABD2FF;" d="M216.623,422.116l30.776-60.696h7.317l-33.333,65.74c-2.03,4.003-6.138,6.526-10.626,6.526l0,0
			h-78.83c-1.802,0-3.263-1.461-3.263-3.263l0,0c0-1.802,1.461-3.263,3.263-3.263h76.484
			C211.88,427.159,215.055,425.21,216.623,422.116z"/>
		<path style="fill:#346690;" d="M153.89,431.516h43.658c0.609,0,1.104-0.494,1.104-1.104l0,0c0-0.609-0.494-1.104-1.104-1.104
			H153.89c-0.61,0-1.104,0.494-1.104,1.104l0,0C152.787,431.022,153.281,431.516,153.89,431.516z"/>
		<path style="fill:#346690;" d="M146.492,430.412c0,0.61,0.494,1.104,1.104,1.104c0.61,0,1.104-0.494,1.104-1.104
			c0-0.609-0.494-1.104-1.104-1.104C146.986,429.309,146.492,429.803,146.492,430.412z"/>
		<path style="fill:#346690;" d="M142.273,430.412c0,0.61,0.494,1.104,1.104,1.104c0.61,0,1.104-0.494,1.104-1.104
			c0-0.609-0.494-1.104-1.104-1.104C142.767,429.309,142.273,429.803,142.273,430.412z"/>
	</g>
</g>
</svg>
